# xmcd
#
# Track frame offsets: 
#        182
#        11305
#        35392
#        47780
#        58225
#        76097
#        104820
#        129442
#        138945
#        163342
#        193230
#        227232
#        257030
#        267692
#        294435
#        304382
#
# Disc length: 4531 seconds
#
# Revision: 8
# Processed by: cddbd v1.5.2PL0 Copyright (c) Steve Scherf et al.
# Submitted via: ExactAudioCopyFreeDBPlugin 1.0
#
DISCID=ef11b110
DTITLE=Various Artist - born with the blues (volume one)
DYEAR=1996
DGENRE=Blues
TTITLE0=Eric Clapton - Snake Drive
TTITLE1=Muddy Waters - Dust My Broom (Live)
TTITLE2=John Lee Hooker - I'm In The Mood
TTITLE3=King Biscuit Boy - Step Back Baby
TTITLE4=John Mayall and The Bluesbreakers - Telephone Blues
TTITLE5=Buddy Guy - First time I Met The Blues (Live)
TTITLE6=Byther Smith - Hold That Train
TTITLE7=The All Stars And Jimmy Page - LA Breakdown
TTITLE8=Jimmy Johnson - Looking For My Baby
TTITLE9=Luther Allison - You Upset Me Baby (Live)
TTITLE10=Albert Collins - I've Got A Mind To Travel (Live)
TTITLE11=Eddie Clearwater - Come Up The Hard Way
TTITLE12=Tony McPhee - You Don't Love Me
TTITLE13=Alexis Korner - Stormy Monday Blues
TTITLE14=John Lee Hooker - Dimples
TTITLE15=Muddy Waters - Howlin' Wolf (Live)
EXTD=
EXTT0=
EXTT1=
EXTT2=
EXTT3=
EXTT4=
EXTT5=
EXTT6=
EXTT7=
EXTT8=
EXTT9=
EXTT10=
EXTT11=
EXTT12=
EXTT13=
EXTT14=
EXTT15=
PLAYORDER=
